<?xml version="1.0" standalone="no"?>
<!DOCTYPE svg PUBLIC "-//W3C//DTD SVG 20010904//EN"
 "http://www.w3.org/TR/2001/REC-SVG-20010904/DTD/svg10.dtd">
<svg version="1.0" xmlns="http://www.w3.org/2000/svg"
 width="1024.000000pt" height="1024.000000pt" viewBox="0 0 1024.000000 1024.000000"
 preserveAspectRatio="xMidYMid meet">

<g transform="translate(0.000000,1024.000000) scale(0.100000,-0.100000)"
fill="#000000" stroke="none">
<path d="M4760 9744 c-346 -50 -700 -217 -942 -443 l-86 -81 -49 25 c-133 69
-380 102 -563 76 -367 -54 -662 -258 -775 -537 l-23 -58 -109 -35 c-136 -45
-241 -110 -351 -215 -131 -126 -210 -242 -263 -387 -48 -132 -69 -258 -69
-423 0 -282 58 -478 208 -702 177 -262 354 -399 646 -499 l119 -41 13 -44 c44
-148 71 -548 58 -866 -4 -122 -3 -182 6 -207 14 -43 62 -87 95 -87 23 0 23 0
22 -125 -1 -69 -3 -125 -5 -125 -1 0 -21 9 -43 21 -22 11 -62 23 -88 26 -40 5
-51 2 -78 -21 -51 -43 -65 -94 -64 -231 1 -174 28 -355 102 -688 63 -280 137
-479 224 -597 36 -49 36 -51 55 -232 44 -409 101 -723 161 -878 63 -165 175
-314 452 -604 l152 -159 22 -99 c22 -98 65 -209 88 -228 10 -8 12 0 8 37 l-4
48 30 -70 c59 -143 155 -276 223 -311 41 -21 48 -18 34 19 -35 84 -26 91 22
17 26 -41 73 -96 102 -122 74 -65 230 -141 230 -112 0 3 -8 18 -18 32 -38 54
-35 56 17 9 60 -53 154 -109 225 -133 57 -20 68 -13 35 24 -55 61 -49 61 40 4
87 -56 224 -113 238 -98 4 3 -9 22 -27 41 -42 43 -33 45 27 4 55 -39 140 -69
190 -69 42 1 134 35 181 68 43 31 51 27 17 -8 -16 -16 -26 -32 -24 -35 8 -7
115 22 157 44 21 11 62 38 90 60 28 23 54 41 58 41 3 0 -10 -20 -30 -45 -44
-53 -36 -56 60 -20 84 32 126 57 188 115 49 44 51 42 14 -12 -35 -51 -18 -51
89 1 123 60 186 125 233 239 26 63 27 20 1 -48 -11 -27 -16 -50 -12 -50 12 0
83 55 112 86 44 48 101 144 141 239 36 83 39 82 22 -6 -10 -52 15 -25 52 57
19 40 45 119 59 176 l25 103 136 140 c305 314 419 496 493 791 53 207 79 354
111 625 l32 264 43 70 c85 137 145 295 219 575 77 296 110 500 111 685 0 113
-3 136 -22 177 -44 96 -100 103 -264 34 -15 -6 -16 6 -11 115 5 122 5 123 37
156 18 19 37 53 43 76 6 24 13 195 16 397 5 316 14 521 31 646 l6 40 82 28
c111 38 285 123 382 187 96 64 247 207 319 304 201 267 292 579 257 882 -31
268 -139 504 -300 656 -124 117 -267 202 -417 248 -69 22 -73 25 -79 59 -26
140 -232 351 -439 449 -289 139 -683 160 -966 52 l-53 -20 -89 84 c-241 230
-591 384 -960 424 -129 14 -321 12 -438 -5z m545 -258 c364 -64 740 -283 840
-490 46 -97 65 -182 65 -301 0 -95 -11 -228 -25 -291 l-6 -29 22 25 c30 34 72
129 98 221 22 80 46 319 38 381 -5 36 -4 38 31 48 166 47 451 52 605 11 209
-55 432 -219 503 -368 55 -118 68 -191 68 -403 1 -190 0 -196 -25 -248 -14
-28 -23 -52 -19 -52 4 0 24 18 44 40 48 54 106 177 152 328 l39 123 30 -7 c91
-19 239 -127 330 -239 212 -263 228 -718 38 -1065 -111 -204 -327 -405 -535
-500 -102 -45 -204 -73 -244 -65 l-35 6 38 42 c61 66 120 159 178 279 53 109
110 269 103 287 -1 6 -37 -36 -78 -92 -146 -199 -382 -410 -548 -492 -92 -46
-123 -48 -285 -27 l-138 18 66 54 c213 176 334 423 366 745 6 63 9 119 7 126
-2 6 -16 -25 -31 -70 -43 -127 -83 -208 -153 -313 -189 -285 -476 -475 -794
-528 -87 -15 -184 -8 -288 19 -41 11 -76 21 -78 24 -3 2 16 37 41 78 51 82 98
197 126 308 26 100 23 121 -6 41 -13 -36 -24 -57 -24 -48 -1 9 3 28 8 41 13
35 39 226 45 337 l6 95 -29 -106 c-93 -337 -205 -543 -371 -677 -152 -122
-337 -163 -506 -111 -61 19 -77 30 -139 93 -163 166 -232 408 -241 851 -7 329
-14 354 -53 195 -48 -195 -72 -492 -52 -645 16 -115 44 -226 88 -344 27 -73
32 -95 22 -102 -7 -4 -63 -17 -123 -28 -129 -25 -275 -27 -388 -7 -90 16 -115
33 -236 161 -219 231 -339 513 -427 1000 -7 36 -8 38 -16 17 -21 -55 -30 -242
-19 -376 25 -301 114 -543 272 -740 26 -32 48 -63 48 -68 0 -4 -13 -8 -29 -8
-16 0 -95 -11 -175 -25 l-146 -24 -77 25 c-272 88 -538 303 -728 589 -113 169
-185 336 -185 428 0 17 -5 48 -12 70 -18 59 -26 24 -27 -111 -2 -204 51 -391
158 -564 31 -51 73 -119 92 -152 39 -67 133 -173 199 -225 l46 -36 -126 3
c-100 2 -141 8 -204 28 -169 54 -298 136 -428 272 -237 248 -331 507 -306 842
18 236 113 442 270 585 72 64 181 122 250 131 46 6 47 6 53 -22 22 -102 62
-220 100 -298 40 -83 103 -182 111 -174 2 2 -8 58 -22 123 -33 153 -37 355
-11 455 32 122 82 207 176 301 71 71 102 93 181 132 157 77 389 118 552 97 89
-11 170 -32 168 -43 0 -4 -10 -28 -21 -54 -31 -72 -57 -181 -70 -296 -13 -115
-2 -192 46 -346 21 -65 71 -159 80 -149 1 2 -4 48 -12 103 -40 273 26 508 190
682 281 297 620 467 1023 513 109 12 370 4 479 -14z m520 -3025 c383 -24 717
-54 1196 -107 l156 -17 6 -216 c4 -119 7 -316 7 -438 0 -221 0 -223 -21 -223
-12 0 -121 11 -243 25 -1233 137 -2626 136 -3896 -5 -96 -11 -187 -20 -202
-20 l-28 0 0 439 0 439 29 5 c16 4 69 9 118 13 79 6 90 4 105 -13 18 -19 41
-137 54 -273 11 -113 22 -52 27 148 6 190 -1 179 102 181 28 1 116 10 196 21
169 22 361 38 609 50 233 11 1570 4 1785 -9z m-119 -1101 c594 -24 1349 -92
1383 -125 9 -9 15 -49 18 -122 l6 -108 -449 0 c-305 0 -488 -4 -569 -13 -265
-29 -493 -69 -657 -114 l-79 -21 -35 34 c-20 19 -43 46 -52 62 -9 15 -22 27
-29 27 -15 0 -41 -48 -58 -105 -11 -37 -15 -40 -49 -39 -20 0 -94 1 -164 2
l-129 2 -53 66 -54 66 -19 -49 c-10 -26 -20 -49 -22 -51 -2 -2 -83 13 -182 32
-222 45 -452 81 -608 98 -134 14 -650 16 -873 4 l-143 -7 7 72 c4 40 12 95 18
123 l11 50 180 23 c314 39 829 78 1215 92 328 12 1095 12 1386 1z m-2191 -539
c-6 -5 -64 -19 -130 -31 -162 -30 -219 -53 -274 -109 -74 -75 -94 -126 -101
-261 -5 -102 -7 -110 -14 -68 -5 26 -7 96 -5 155 4 94 8 116 32 166 53 107
117 135 327 146 80 5 152 9 160 9 8 1 10 -1 5 -7z m2259 -80 c-101 -36 -180
-95 -224 -165 -19 -31 -58 -180 -62 -234 -1 -15 -4 16 -8 68 -3 59 -1 113 6
143 19 81 98 147 222 183 91 27 139 30 66 5z m-3123 -153 c74 -50 103 -89 118
-159 7 -29 11 -167 11 -332 l-1 -282 -30 75 c-89 224 -127 364 -158 575 -24
160 -24 165 -12 165 5 0 38 -19 72 -42z m4809 -13 c0 -81 -30 -247 -66 -369
-31 -102 -119 -343 -130 -355 -2 -2 -4 139 -4 314 l0 319 48 46 c40 39 119 88
145 90 4 0 7 -20 7 -45z m-2379 -56 c63 -16 102 -49 120 -104 38 -114 90 -372
109 -540 11 -99 32 -229 47 -290 32 -132 33 -196 5 -251 -27 -53 -91 -110
-161 -143 -48 -22 -69 -26 -146 -26 -77 0 -103 5 -180 33 -65 24 -118 36 -191
42 -170 14 -209 46 -202 161 2 33 0 59 -4 59 -13 0 -47 -51 -64 -95 -22 -59
-16 -165 11 -196 28 -31 77 -49 134 -49 27 0 52 -4 55 -8 3 -5 -27 -19 -67
-32 -40 -12 -79 -25 -87 -28 -10 -4 -9 1 5 17 l20 23 -40 -7 c-64 -12 -155
-44 -222 -80 -67 -35 -76 -35 -41 2 21 23 21 23 1 23 -36 0 -157 -68 -229
-128 -81 -68 -133 -134 -174 -217 -53 -110 -64 -173 -66 -365 -2 -147 -6 -184
-23 -233 -11 -33 -23 -82 -26 -110 -4 -29 -9 -63 -12 -77 -6 -24 -6 -23 -14
10 -58 237 -108 637 -110 885 l-1 130 -19 -75 c-65 -259 -71 -500 -20 -800
l18 -104 -94 99 c-284 302 -352 487 -443 1207 -22 172 -62 445 -90 607 -27
162 -50 299 -49 305 0 6 13 -28 28 -76 35 -109 118 -260 183 -332 116 -131
333 -186 733 -186 337 0 596 45 716 125 53 34 132 143 169 232 16 39 55 165
86 280 30 114 63 224 72 243 36 74 137 100 263 69z m2140 -300 c-17 -85 -37
-197 -46 -249 -9 -52 -31 -174 -50 -270 -19 -96 -41 -224 -49 -285 -9 -60 -27
-195 -41 -300 -68 -498 -135 -718 -282 -923 -46 -64 -191 -242 -197 -242 -2 0
3 28 10 63 51 239 57 516 16 692 -36 156 -38 154 -46 -35 -9 -211 -24 -332
-77 -595 -38 -191 -49 -232 -49 -188 0 11 -12 69 -26 129 -19 83 -27 153 -34
289 -9 201 -23 271 -77 385 -65 135 -258 304 -387 339 -48 13 -55 8 -30 -20
22 -25 18 -24 -51 12 -55 30 -204 79 -237 79 -18 0 -19 -2 -7 -16 12 -15 11
-16 -11 -9 -14 4 -38 13 -55 20 l-30 12 60 17 c118 35 152 74 143 166 -6 62
-78 212 -142 297 -31 41 -56 90 -76 150 -16 48 -30 91 -30 95 0 4 21 -15 47
-43 153 -163 341 -219 738 -219 329 0 528 28 666 91 91 42 129 86 206 236 72
138 112 248 144 392 34 154 34 107 0 -70z m-2541 -1764 c-30 -32 -18 -32 90
-1 89 26 110 27 64 3 -25 -13 -2 -14 227 -14 140 1 265 -3 279 -7 24 -7 24 -7
-5 18 l-30 26 70 -24 c39 -14 88 -28 110 -32 l40 -7 -20 23 c-18 21 -15 20 40
-7 33 -17 84 -36 113 -42 64 -13 65 -13 58 -2 -3 5 11 3 32 -5 45 -16 92 -18
92 -3 0 6 -5 20 -11 32 -10 18 -6 17 22 -8 95 -83 118 -109 107 -116 -9 -6 -8
-12 4 -26 17 -20 58 -98 58 -110 0 -4 -7 1 -15 11 -25 33 -30 9 -13 -57 24
-88 30 -154 20 -212 -7 -39 -11 -45 -16 -30 -5 11 -13 33 -18 48 -8 19 -13 24
-19 16 -4 -7 -6 -17 -4 -23 2 -6 6 -49 9 -96 l6 -85 -21 38 c-25 46 -44 43
-44 -7 0 -37 0 -37 -15 -14 -8 12 -27 36 -42 53 l-27 30 -1 -26 c0 -15 7 -46
15 -69 8 -23 15 -58 15 -77 l0 -34 -57 62 c-32 34 -105 100 -163 146 -96 77
-109 91 -147 166 -24 45 -43 85 -43 89 0 4 10 8 23 8 30 0 65 37 73 77 6 28 3
32 -27 41 -81 25 -206 35 -459 35 -267 -1 -438 -14 -497 -38 -30 -13 -32 -15
-23 -47 11 -38 33 -57 73 -65 15 -3 26 -8 25 -12 -74 -153 -124 -219 -223
-293 -50 -37 -107 -85 -128 -107 -21 -23 -40 -41 -42 -41 -11 0 -4 90 9 128 8
23 11 44 6 47 -9 6 -68 -48 -87 -80 -10 -17 -12 -12 -12 38 -1 64 -13 72 -39
27 -17 -30 -39 -42 -29 -16 9 22 20 156 13 156 -3 0 -15 -18 -26 -40 -11 -22
-23 -40 -27 -40 -12 0 7 187 26 245 10 33 18 61 16 63 -2 2 -13 -2 -26 -8 -20
-11 -18 -6 14 54 41 73 44 85 22 66 -9 -8 -15 -8 -15 -2 0 12 121 122 134 122
5 0 3 -7 -4 -15 -11 -13 -7 -15 24 -15 20 0 52 7 72 15 20 8 32 10 28 3 -7
-11 18 -8 121 13 109 23 172 41 205 59 46 25 48 25 20 -5z"/>
</g>
</svg>
